<svg version="1.1" id="Layer_1" xmlns="http://www.w3.org/2000/svg" xmlns:xlink="http://www.w3.org/1999/xlink" x="0px" y="0px"
	 viewBox="0 0 500 500" enable-background="new 0 0 500 500" xml:space="preserve">
<circle fill="#FFFFFF" stroke="#000000" stroke-width="10" stroke-miterlimit="10" cx="250" cy="250" r="244.611"/>
<g>
	<g>
		<path id="text" d="M417.497,170.286l-55.76,99.231c0,0.153-0.078,0.305-0.228,0.455c0,0.153-0.078,0.305-0.228,0.454
			c-1.519,2.884-3.3,6.412-5.348,10.582c-2.048,4.175-5.501,11.345-10.356,21.509c0-1.061,0-2.163,0-3.301c0-1.137,0-2.236,0-3.299
			c0-1.669,0-3.336,0-5.007c0-1.668,0-3.336,0-5.007c0-2.731-0.039-5.463-0.113-8.193c-0.078-2.731-0.193-5.463-0.342-8.193
			l-8.193-99.231h-27.311l-59.63,99.231c0,0.153-0.078,0.227-0.228,0.227c0,0.153-0.039,0.267-0.113,0.342
			c-0.078,0.078-0.114,0.192-0.114,0.341c-0.498,0.813-1.021,1.698-1.566,2.639l0.01,0.005l-14.54,27.556
			c-0.318,0.618-0.643,1.248-0.973,1.89c0.001-0.018,0.002-0.034,0.003-0.052L214.667,336.2h21.894l78.292-134.508l9.104,134.508
			h26.856l95.133-165.915H417.497z"/>
	</g>
	<g>
		<polygon points="210.575,170.286 186.031,170.286 197.425,260.602 197.346,260.612 198.285,267.922 140.931,267.922 
			140.953,267.89 113.937,267.89 66.054,336.2 94.503,336.2 127.504,286.813 200.561,286.813 207.161,336.2 236.065,336.2 		"/>
	</g>
</g>
</svg>
